<?xml version="1.0" encoding="utf-8"?>
<!-- Generator: Adobe Illustrator 16.0.0, SVG Export Plug-In . SVG Version: 6.00 Build 0)  -->
<!DOCTYPE svg PUBLIC "-//W3C//DTD SVG 1.1//EN" "http://www.w3.org/Graphics/SVG/1.1/DTD/svg11.dtd">
<svg version="1.1" id="Layer_2" xmlns="http://www.w3.org/2000/svg" xmlns:xlink="http://www.w3.org/1999/xlink" x="0px" y="0px"
	 width="612px" height="792px" viewBox="0 0 612 792" enable-background="new 0 0 612 792" xml:space="preserve">
<g>
	<text transform="matrix(1.2299 0 0 1 183.6523 341.2646)" font-family="'ArialNarrow-Bold'" font-size="329.7083">D</text>
	
		<text transform="matrix(0.8131 0 0 1 230.1558 299.8486)" fill="#FFFFFF" stroke="#000000" stroke-width="7" stroke-linejoin="bevel" font-family="'Ayuthaya'" font-size="278.5438">a</text>
	<g>
		<g>
			<path d="M304.42,459.747c3.225,0,3.225-5,0-5C301.196,454.747,301.196,459.747,304.42,459.747L304.42,459.747z"/>
		</g>
	</g>
	<path d="M331.229,295.26c-0.189-0.715-0.356-1.439-0.515-2.167c0.147-0.705,0.209-1.479,0.14-2.301
		c-0.202-2.383-0.512-4.828-1.026-7.131c0.001-0.008,0.002-0.015,0.002-0.023c0.202-2.957-0.497-5.289-1.037-8.04
		c-0.654-3.333-4.092-4.848-5.138-1.067c-0.249,0.899-0.623,1.329-1.263,2.46c-0.582,0.12-1.133,0.514-1.53,1.253
		c-0.755,1.405-1.635,2.618-2.389,4.022c-0.153,0.285-0.281,0.591-0.395,0.906c-1.741,1.893-3.64,3.42-5.408,5.247
		c-0.325,0.335-0.578,0.726-0.774,1.148c-0.371,0.081-0.757,0.307-1.146,0.714c-2.041,2.134-5.776,3.354-7.528,6.722
		c-1.021,0.012-2.01,0.289-3.039,0.892c-1.532,0.897-2.914,2.349-4.456,3.183c-1.681,0.909-2.176,3.463-1.838,5.601
		c0.015,0.167,0.035,0.332,0.062,0.492c0.435,2.514,1.95,3.541,3.458,3.121c2.089-0.581,4.114-1.778,6.048-3.225
		c0.868,1.478,2.151,2.385,3.738,2.463c1.554,0.077,3.149-0.591,4.695-1.546c0.361,0.285,0.781,0.436,1.263,0.381
		c4.218-0.473,7.656-3.442,10.174-8.009c1.672,2.169,3.242,0.589,5.192,0.561C330.16,300.893,331.959,298.016,331.229,295.26z"/>
	<path d="M268.952,305.817c0.383-1.738,0.184-3.686-0.806-4.674c-0.437-0.733-1.036-1.266-1.796-1.417
		c-2.294-0.458-4.912-3.823-6.785-5.896c-1.795-1.986-3.617-4.616-5.82-5.339c-1.364-0.448-2.424,0.559-3.011,2.03
		c-2.276,1.72-1.845,8.399,1.28,8.535c0.112,0.004,0.223,0.026,0.333,0.056c-0.791,2.043-0.496,5.316,0.919,6.483
		c1.145,0.945,2.23,1.466,3.527,1.281c0.542-0.078,1.002-0.351,1.381-0.753c1.114,0.276,2.211,0.792,3.306,1.333
		c0.123,0.077,0.251,0.143,0.388,0.192c0.511,0.253,1.021,0.506,1.534,0.737c0.312,0.215,0.619,0.338,0.917,0.38
		c0.426,0.162,0.854,0.308,1.284,0.408c0.864,0.201,1.607-0.162,2.187-0.833C268.416,307.849,268.802,306.906,268.952,305.817z"/>
	<path d="M299.192,136.105c-1.356,0.445-2.662,1.368-4.013,1.869c-0.33-0.258-0.71-0.425-1.143-0.465
		c-1.88-0.174-3.759-0.029-5.626,0.348c-0.397-0.438-0.867-0.734-1.401-0.794c-2.777-0.315-5.594,0.062-8.379,0.906
		c-0.019-0.002-0.035-0.011-0.054-0.013c-1.64-0.139-3.208,0.079-4.715,0.572c-1.485,0.319-3.007,0.776-4.531,1.373
		c-0.685-1.418-1.869-2.292-3.026-1.785c-2.259,0.991-4.594,2.642-6.778,4.819c-1.45-0.907-2.927-1.326-4.562-1.404
		c-1.682-0.081-2.613,2.115-2.811,4.469c-0.402,4.79-1.131,9.472-1.88,14.146c-0.239,1.122-0.424,2.268-0.549,3.435
		c-0.194,1.803,0.213,3.28,0.88,4.265c-0.011,0.069-0.027,0.135-0.037,0.204c-0.245,1.622,0.101,3.131,0.729,4.19
		c0.004,0.191,0.002,0.373,0.014,0.573c0.243,4.114,2.814,5.607,4.798,3.16c1.042-1.286,2.081-2.6,3.12-3.924
		c0.623-0.295,1.183-0.907,1.536-1.896c0.014-0.04,0.022-0.074,0.035-0.114c3.394-4.344,6.816-8.714,10.411-12.571
		c1.71-1.122,3.414-2.263,5.083-3.536c0.323-0.247,0.658-0.532,1.001-0.833c0.21-0.148,0.413-0.32,0.62-0.477
		c0.266-0.026,0.548-0.123,0.845-0.303c3.457-2.086,7.096-2.926,10.682-4.245c0.312-0.115,0.581-0.288,0.815-0.504
		c0.037-0.008,0.075-0.013,0.111-0.022c1.734-0.403,3.534-0.025,5.257-0.591c1.724-0.566,3.337-1.668,5.06-2.235
		C304.236,143.558,302.73,134.943,299.192,136.105z"/>
	<path d="M358.076,234.514c0.061-6.192,0.094-12.384,0.029-18.577c-0.073-7.021-0.17-14.196-0.819-21.151
		c-0.599-6.425-1.821-12.747-1.689-19.292c0.015-0.798-0.082-1.481-0.258-2.058c0.038-0.804,0.105-1.604,0.117-2.411
		c0.037-2.436-1.308-4.469-2.811-4.469c-1.562,0-2.774,2.034-2.812,4.469c0,0,0,0,0,0.001c-0.528,1.12-0.621,2.464-0.462,3.868
		c0.005,0.044,0.009,0.075,0.014,0.112c0.001,0.062,0.003,0.144,0.009,0.264c0.023,0.52,0.018,1.043,0.018,1.564
		c0,0.291,0.024,0.572,0.06,0.848c-0.077,0.475-0.103,1.008-0.06,1.61c0.282,3.901-0.31,7.715-0.281,11.619
		c0.018,2.423,0.119,4.848,0.247,7.271c-0.065,0.282-0.117,0.588-0.146,0.926c-0.035,0.408-0.048,0.802-0.06,1.197
		c-0.014-0.003-0.027-0.006-0.041-0.009c0.006,0.575,0.027,1.148,0.041,1.723c0.003,0.065,0.003,0.133,0.006,0.198
		c0.047,1.853,0.129,3.701,0.217,5.549c-0.33,0.688-0.5,1.622-0.404,2.808c0.205,2.53,0.337,5.045,0.41,7.558
		c-0.042,0.347-0.089,0.699-0.12,1.031c-0.24,2.567-0.392,5.129-0.431,7.723c-0.015,1.024,0.152,1.862,0.434,2.521
		c-0.023,0.265-0.033,0.536-0.012,0.813c-0.03,0.618-0.059,1.236-0.096,1.855c-0.194,3.306-0.03,6.628,0.25,9.94
		c-0.023,0.497-0.041,0.994-0.066,1.491c-0.251,4.999-0.715,9.901-0.454,14.92c0.245,4.726,0.84,9.27,0.647,14.04
		c-0.095,2.351,0.787,3.735,1.879,4.162c0.059,0.424,0.121,0.848,0.189,1.271c0.899,5.58,6.321,3.211,5.421-2.375
		c-0.09-0.564-0.169-1.129-0.24-1.696c1.002-0.542,1.829-1.891,1.887-4.043C359.005,258.008,358.622,246.253,358.076,234.514z"/>
</g>
</svg>
